<svg width="512" height="512" viewBox="0 0 512 512" fill="none" xmlns="http://www.w3.org/2000/svg">
  <rect width="512" height="512" rx="28" fill="white"/>
  <rect x="28" y="28" width="456" height="456" rx="18" fill="#F8F9FD" stroke="#D8DCEC" stroke-width="8" stroke-dasharray="14 10"/>
  <rect x="66" y="66" width="100" height="100" rx="10" fill="#090B12"/>
  <rect x="346" y="66" width="100" height="100" rx="10" fill="#090B12"/>
  <rect x="66" y="346" width="100" height="100" rx="10" fill="#090B12"/>
  <rect x="92" y="92" width="48" height="48" fill="white"/>
  <rect x="372" y="92" width="48" height="48" fill="white"/>
  <rect x="92" y="372" width="48" height="48" fill="white"/>
  <path d="M212 228C228 203 256 190 285 194C304 197 321 209 332 225C343 241 347 262 342 283C336 306 322 325 300 344L268 372H228L256 346C275 329 285 311 285 291C285 271 275 256 258 249L212 228Z" fill="url(#paint0_linear_0_1)" fill-opacity="0.22" stroke="url(#paint1_linear_0_1)" stroke-width="8"/>
  <text x="256" y="438" fill="#6F7690" font-size="28" font-family="Outfit, sans-serif" text-anchor="middle">Feishu Contact</text>
  <defs>
    <linearGradient id="paint0_linear_0_1" x1="214" y1="198" x2="335" y2="366" gradientUnits="userSpaceOnUse">
      <stop stop-color="#8BF389"/>
      <stop offset="1" stop-color="#B56EFF"/>
    </linearGradient>
    <linearGradient id="paint1_linear_0_1" x1="214" y1="198" x2="335" y2="366" gradientUnits="userSpaceOnUse">
      <stop stop-color="#8BF389"/>
      <stop offset="1" stop-color="#B56EFF"/>
    </linearGradient>
  </defs>
</svg>
