<svg width="640" height="480" viewBox="0 0 640 480" fill="none" xmlns="http://www.w3.org/2000/svg">
  <rect width="640" height="480" rx="38" fill="#090B12"/>
  <g filter="url(#filter0_f_0_1)">
    <circle cx="202" cy="155" r="92" fill="#8BF389" fill-opacity="0.28"/>
    <circle cx="385" cy="310" r="118" fill="#B56EFF" fill-opacity="0.24"/>
  </g>
  <path d="M267 82C339 72 401 110 422 176C438 227 423 283 374 334L314 396H225L293 332C327 300 341 269 336 235C330 197 302 171 260 165L267 82Z" fill="url(#paint0_linear_0_1)" fill-opacity="0.18" stroke="url(#paint1_linear_0_1)" stroke-width="10"/>
  <path d="M185 133C145 179 140 250 176 302C203 341 255 363 317 359" stroke="url(#paint2_linear_0_1)" stroke-width="17" stroke-linecap="round"/>
  <path d="M225 106C182 160 177 247 217 304C243 340 286 356 343 351" stroke="url(#paint3_linear_0_1)" stroke-width="13" stroke-linecap="round" opacity="0.92"/>
  <path d="M159 186C192 159 232 149 275 154C316 160 355 182 384 222" stroke="url(#paint4_linear_0_1)" stroke-width="11" stroke-linecap="round" opacity="0.9"/>
  <text x="74" y="424" fill="url(#paint5_linear_0_1)" font-size="68" font-family="Outfit, sans-serif" font-weight="700" letter-spacing="14">BAMDRA</text>
  <defs>
    <filter id="filter0_f_0_1" x="30" y="-17" width="473" height="499" filterUnits="userSpaceOnUse" color-interpolation-filters="sRGB">
      <feFlood flood-opacity="0" result="BackgroundImageFix"/>
      <feBlend mode="normal" in="SourceGraphic" in2="BackgroundImageFix" result="shape"/>
      <feGaussianBlur stdDeviation="40" result="effect1_foregroundBlur_0_1"/>
    </filter>
    <linearGradient id="paint0_linear_0_1" x1="186" y1="92" x2="406" y2="387" gradientUnits="userSpaceOnUse">
      <stop stop-color="#8BF389"/>
      <stop offset="1" stop-color="#B56EFF"/>
    </linearGradient>
    <linearGradient id="paint1_linear_0_1" x1="198" y1="82" x2="390" y2="389" gradientUnits="userSpaceOnUse">
      <stop stop-color="#B0FFAB"/>
      <stop offset="1" stop-color="#D08CFF"/>
    </linearGradient>
    <linearGradient id="paint2_linear_0_1" x1="165" y1="133" x2="320" y2="360" gradientUnits="userSpaceOnUse">
      <stop stop-color="#8BF389"/>
      <stop offset="1" stop-color="#D3A7FF"/>
    </linearGradient>
    <linearGradient id="paint3_linear_0_1" x1="220" y1="116" x2="340" y2="354" gradientUnits="userSpaceOnUse">
      <stop stop-color="#E5FFE4"/>
      <stop offset="1" stop-color="#B56EFF"/>
    </linearGradient>
    <linearGradient id="paint4_linear_0_1" x1="167" y1="163" x2="388" y2="220" gradientUnits="userSpaceOnUse">
      <stop stop-color="#B56EFF"/>
      <stop offset="1" stop-color="#8BF389"/>
    </linearGradient>
    <linearGradient id="paint5_linear_0_1" x1="78" y1="365" x2="510" y2="431" gradientUnits="userSpaceOnUse">
      <stop stop-color="#9DFF9C"/>
      <stop offset="0.45" stop-color="#E0FEE6"/>
      <stop offset="1" stop-color="#C07BFF"/>
    </linearGradient>
  </defs>
</svg>
