<svg width="256" height="256" viewBox="0 0 256 256" fill="none" xmlns="http://www.w3.org/2000/svg">
  <rect width="256" height="256" rx="58" fill="#090B12"/>
  <path d="M84 86C99 55 133 43 168 55C190 63 205 79 211 101C217 123 213 144 198 165L161 210H114L147 171C165 150 171 132 167 117C163 102 151 92 134 89C114 86 100 95 90 114L84 86Z" fill="url(#paint0_linear_0_1)" fill-opacity="0.22" stroke="url(#paint1_linear_0_1)" stroke-width="8"/>
  <path d="M86 78C65 100 61 135 79 159C92 177 114 188 140 188" stroke="url(#paint2_linear_0_1)" stroke-width="13" stroke-linecap="round"/>
  <path d="M102 64C79 92 76 134 97 161C110 178 130 187 155 184" stroke="url(#paint3_linear_0_1)" stroke-width="11" stroke-linecap="round" opacity="0.84"/>
  <path d="M74 100C90 87 110 82 131 86C151 90 168 101 181 121" stroke="url(#paint4_linear_0_1)" stroke-width="9" stroke-linecap="round" opacity="0.88"/>
  <defs>
    <linearGradient id="paint0_linear_0_1" x1="82" y1="57" x2="204" y2="206" gradientUnits="userSpaceOnUse">
      <stop stop-color="#8BF389"/>
      <stop offset="1" stop-color="#B56EFF"/>
    </linearGradient>
    <linearGradient id="paint1_linear_0_1" x1="84" y1="58" x2="203" y2="206" gradientUnits="userSpaceOnUse">
      <stop stop-color="#9BFF9B"/>
      <stop offset="1" stop-color="#D08CFF"/>
    </linearGradient>
    <linearGradient id="paint2_linear_0_1" x1="72" y1="80" x2="153" y2="189" gradientUnits="userSpaceOnUse">
      <stop stop-color="#8BF389"/>
      <stop offset="1" stop-color="#D08CFF"/>
    </linearGradient>
    <linearGradient id="paint3_linear_0_1" x1="100" y1="67" x2="162" y2="188" gradientUnits="userSpaceOnUse">
      <stop stop-color="#D8FFD6"/>
      <stop offset="1" stop-color="#B56EFF"/>
    </linearGradient>
    <linearGradient id="paint4_linear_0_1" x1="78" y1="84" x2="186" y2="123" gradientUnits="userSpaceOnUse">
      <stop stop-color="#B56EFF"/>
      <stop offset="1" stop-color="#8BF389"/>
    </linearGradient>
  </defs>
</svg>
